<?xml version="1.0" encoding="UTF-8" standalone="no"?>
<!-- Created with Inkscape (http://www.inkscape.org/) -->

<svg
   width="19.907185mm"
   height="6.725687mm"
   viewBox="0 0 19.907185 6.725687"
   version="1.1"
   id="svg9667"
   xmlns="http://www.w3.org/2000/svg"
   xmlns:svg="http://www.w3.org/2000/svg">
  <defs
     id="defs9664" />
  <g
     id="layer1"
     transform="translate(-26.358122,-23.157761)">
    <g
       aria-label="fern"
       id="text11477"
       style="font-size:10.5833px;line-height:1.25;letter-spacing:0px;stroke-width:0.264583">
      <path
         d="m 27.575201,25.459628 q 0.116416,0 0.190499,-0.08467 0.08467,-0.08467 0.09525,-0.201083 0.01058,-0.539748 0.105833,-0.973663 0.09525,-0.433916 0.359832,-0.698498 0.275166,-0.264583 0.761998,-0.328082 0.497415,-0.0635 1.301746,0.126999 0,0.07408 -0.01058,0.296333 0,0.222249 -0.01058,0.507998 0,0.275166 -0.01058,0.571498 0,0.285749 -0.01058,0.497415 h -0.169333 q -0.253999,-0.687914 -0.560915,-1.068913 -0.296333,-0.380999 -0.582082,-0.412749 -0.285749,-0.03175 -0.518581,0.317499 -0.232833,0.349249 -0.338666,1.12183 -0.02117,0.137583 0.0635,0.232833 0.08467,0.09525 0.222249,0.09525 h 0.814914 v 0.264583 h -0.878414 q -0.116416,0 -0.201082,0.08467 -0.07408,0.07408 -0.08467,0.1905 -0.04233,0.941913 0.05292,1.545161 0.09525,0.592665 0.285749,0.994831 0.201083,0.391582 0.497415,0.645581 0.306916,0.253999 0.677331,0.507998 v 0.1905 h -3.270239 v -0.1905 q 0.529165,-0.359832 0.825497,-0.687914 0.306916,-0.338666 0.455082,-0.740831 0.158749,-0.412749 0.190499,-0.952497 0.04233,-0.539748 0.03175,-1.312329 0,-0.116417 -0.08467,-0.1905 -0.08467,-0.08467 -0.201083,-0.08467 H 26.86612 v -0.264583 h 0.709081 z"
         style="font-family:Monfem;-inkscape-font-specification:Monfem"
         id="path31877" />
      <path
         d="m 34.835349,28.422952 q -0.05292,0.09525 -0.15875,0.338666 -0.105832,0.243416 -0.306915,0.497415 -0.201083,0.243416 -0.529165,0.433915 -0.328082,0.1905 -0.836081,0.1905 -1.015997,0 -1.703911,-0.634998 -0.317499,-0.296333 -0.507998,-0.698498 -0.179917,-0.412749 -0.232833,-0.846664 -0.05292,-0.444499 0.02117,-0.888997 0.07408,-0.455082 0.275165,-0.857248 0.22225,-0.444498 0.550332,-0.730247 0.328082,-0.285749 0.687914,-0.433915 0.370416,-0.15875 0.751415,-0.179917 0.380998,-0.03175 0.709081,0.04233 0.328082,0.0635 0.571498,0.232832 0.253999,0.15875 0.370415,0.391582 0.137583,0.285749 0.04233,0.677331 -0.09525,0.391583 -0.402166,0.751415 -0.296332,0.359832 -0.804331,0.613831 -0.507998,0.253999 -1.185329,0.253999 -0.137583,0 -0.275166,-0.01058 -0.137583,-0.01058 -0.285749,-0.03175 -0.07408,-0.01058 -0.105833,0.05292 -0.03175,0.0635 0.02117,0.116416 0.232832,0.232833 0.613831,0.465665 0.232833,0.137583 0.592665,0.285749 0.370415,0.148166 0.751414,0.222249 0.380999,0.0635 0.719664,0 0.349249,-0.0635 0.539749,-0.338665 z m -3.714738,-2.391825 q -0.148166,0.370415 -0.105833,0.719664 0.02117,0.232833 0.179916,0.402165 0.158749,0.15875 0.391582,0.1905 0.507998,0.0635 1.005413,-0.01058 0.497416,-0.07408 0.846664,-0.296332 0.349249,-0.232833 0.486832,-0.613831 0.137583,-0.380999 -0.07408,-0.920747 -0.158749,-0.380999 -0.433915,-0.518582 -0.275166,-0.148166 -0.603248,-0.127 -0.243416,0.01058 -0.497415,0.105833 -0.254,0.08467 -0.486832,0.243416 -0.222249,0.148166 -0.412749,0.359832 -0.190499,0.211666 -0.296332,0.465666 z"
         style="font-family:Monfem;-inkscape-font-specification:Monfem"
         id="path31879" />
      <path
         d="m 38.730011,24.591798 q 0.08467,0 0.148166,0.07408 0.07408,0.0635 0.07408,0.148166 0,0.08467 0,0.232833 0,0.148166 -0.01058,0.317499 0,0.169332 -0.01058,0.328082 0,0.148166 0,0.243416 h -0.359832 q -0.04233,-0.169333 -0.116417,-0.370416 -0.07408,-0.201082 -0.190499,-0.359832 -0.116416,-0.169333 -0.264583,-0.275166 -0.148166,-0.116416 -0.338665,-0.116416 -0.201083,0 -0.391582,0.148166 -0.1905,0.148167 -0.349249,0.444499 -0.148166,0.285749 -0.243416,0.740831 -0.08467,0.455082 -0.08467,1.068913 0,0.666748 0.380998,1.312329 0.380999,0.645582 1.15358,1.164163 v 0.1905 h -3.27024 v -0.1905 q 0.793748,-0.539748 1.164163,-1.174746 0.370416,-0.634998 0.359833,-1.301746 0,-0.539748 -0.02117,-0.888997 -0.02117,-0.349249 -0.116416,-0.603248 -0.09525,-0.253999 -0.296333,-0.465665 -0.190499,-0.211666 -0.539748,-0.465665 v -0.1905 h 1.693328 q 0.730248,0 1.629828,-0.01058 z"
         style="font-family:Monfem;-inkscape-font-specification:Monfem"
         id="path31881" />
      <path
         d="m 44.751895,26.877791 q 0,0.179916 -0.01058,0.486831 0,0.296333 0.126999,0.677332 0.127,0.370415 0.444499,0.80433 0.317499,0.423332 0.952497,0.846664 v 0.1905 h -3.259656 v -0.1905 q 0.433915,-0.296332 0.730247,-0.603248 0.296333,-0.306916 0.476249,-0.645581 0.179916,-0.338666 0.253999,-0.719664 0.07408,-0.391583 0.0635,-0.846664 -0.02117,-0.518582 -0.148166,-0.888998 -0.127,-0.380998 -0.328083,-0.613831 -0.201082,-0.232833 -0.455082,-0.338666 -0.253999,-0.105833 -0.518581,-0.105833 -0.412749,0 -0.761998,0.22225 -0.349249,0.222249 -0.613831,0.560915 -0.253999,0.338665 -0.402166,0.751414 -0.148166,0.402165 -0.148166,0.793747 -0.01058,0.656165 0.359832,1.28058 0.380999,0.624414 1.164163,1.153579 v 0.1905 h -3.259656 v -0.1905 q 0.804331,-0.539748 1.164163,-1.164163 0.370416,-0.634998 0.349249,-1.269996 -0.01058,-0.677331 -0.412749,-1.333495 -0.391582,-0.656165 -1.100663,-1.132413 v -0.1905 h 2.000244 q 0.814914,0 1.830911,-0.01058 0.518581,0 0.825497,0.105833 0.306916,0.105833 0.455082,0.370415 0.148166,0.264583 0.179916,0.709081 0.04233,0.444499 0.04233,1.100664 z"
         style="font-family:Monfem;-inkscape-font-specification:Monfem"
         id="path31883" />
    </g>
  </g>
</svg>
